<svg width="14" height="8" viewBox="0 0 14 8" fill="none" xmlns="http://www.w3.org/2000/svg">
<path d="M1.99841 0.33563L7 5.24298L12.0016 0.33563C12.2211 0.120729 12.5189 0 12.8294 0C13.1398 0 13.4376 0.120729 13.6571 0.33563C13.8767 0.550531 14 0.841999 14 1.14591C14 1.44983 13.8767 1.7413 13.6571 1.9562L7.82777 7.66242C7.71939 7.76939 7.59044 7.85429 7.44837 7.91223C7.30629 7.97017 7.15391 8 7 8C6.84609 8 6.6937 7.97017 6.55163 7.91223C6.40956 7.85429 6.28061 7.76939 6.17223 7.66242L0.342874 1.9562C0.234169 1.84979 0.147939 1.72347 0.0891085 1.58444C0.0302782 1.44541 -9.50556e-07 1.2964 -9.50918e-07 1.14591C-9.5128e-07 0.99543 0.0302782 0.84642 0.0891085 0.707391C0.147939 0.568362 0.234169 0.442038 0.342874 0.33563C0.451577 0.229222 0.580627 0.144814 0.722656 0.0872268C0.864685 0.0296392 1.01691 0 1.17064 0C1.32437 0 1.4766 0.0296392 1.61863 0.0872268C1.76065 0.144814 1.8897 0.229222 1.99841 0.33563Z" fill="#5E5E62"/>
</svg>
