<svg width="24" height="24" viewBox="0 0 24 24" fill="none" xmlns="http://www.w3.org/2000/svg">
<path d="M14.5125 11.0063H12.6375V16.3188H14.5125V11.0063Z" fill="white"/>
<path d="M7.95 10.9688H6.075V16.3188H7.95V10.9688Z" fill="white"/>
<path d="M5 18.1938V17.2563C5 16.7375 5.41875 16.3188 5.9375 16.3188H14.6562C15.175 16.3188 15.5937 16.7375 15.5937 17.2563V18.1938H5Z" fill="white"/>
<path d="M5 9.13125L10.1312 5.05625C10.225 4.98125 10.35 4.98125 10.4437 5.05625L15.5937 9.13125L10.5813 10.0688L5 9.13125Z" fill="white"/>
<path d="M15.3375 11.0063H5.25C5.1125 11.0063 5 10.8938 5 10.7563V9.13125H15.5937V10.7563C15.5875 10.8938 15.475 11.0063 15.3375 11.0063Z" fill="white"/>
<path d="M10.2874 7.96249C10.5463 7.96249 10.7562 7.75263 10.7562 7.49374C10.7562 7.23486 10.5463 7.02499 10.2874 7.02499C10.0285 7.02499 9.81865 7.23486 9.81865 7.49374C9.81865 7.75263 10.0285 7.96249 10.2874 7.96249Z" fill="#041342"/>
<line x1="16.4444" y1="12.8892" x2="21.5556" y2="12.8892" stroke="white" stroke-width="0.888889" stroke-linecap="round"/>
<line x1="19.1109" y1="10.4444" x2="19.1109" y2="15.5556" stroke="white" stroke-width="0.888889" stroke-linecap="round"/>
</svg>
