<svg width="12" height="7" viewBox="0 0 12 7" fill="none" xmlns="http://www.w3.org/2000/svg">
<path d="M2.48529 0.440027C2.33585 0.290741 2.14531 0.189386 1.93799 0.148905C1.73068 0.108425 1.516 0.130657 1.32138 0.212762C1.12676 0.294868 0.96103 0.43312 0.845355 0.609862C0.72968 0.786604 0.669311 0.993813 0.671958 1.20503C0.671299 1.34463 0.698528 1.48295 0.752048 1.61188C0.805568 1.74082 0.884301 1.85776 0.983626 1.95586L5.58779 6.56003C5.78701 6.759 6.05706 6.87076 6.33863 6.87076C6.62019 6.87076 6.89024 6.759 7.08946 6.56003L11.6936 1.95586C11.8901 1.75248 11.9999 1.48074 11.9999 1.19794C11.9999 0.915151 11.8901 0.643411 11.6936 0.440027C11.4944 0.241056 11.2244 0.129295 10.9428 0.129295C10.6612 0.129295 10.3912 0.241056 10.192 0.440027L6.33863 4.29336L2.48529 0.440027Z" fill="#9FA2B4"/>
</svg>
