<svg width="20" height="18" viewBox="0 0 20 18" fill="none" xmlns="http://www.w3.org/2000/svg">
<g clip-path="url(#clip0_913_30923)">
<path d="M15.7148 -13.5714C14.4047 -13.5714 13.3566 -12.5078 13.3566 -11.2122C13.3566 -9.91659 14.4104 -8.85812 15.7148 -8.85812C17.0191 -8.85812 18.074 -9.91659 18.074 -11.2122C18.074 -12.5078 17.0249 -13.5714 15.7148 -13.5714ZM14.4472 -8.33123C13.5256 -8.33123 12.7151 -7.92247 12.1576 -7.28363H19.272C18.7135 -7.92263 17.901 -8.33123 16.9793 -8.33123H14.4472ZM11.5233 -6.24011C11.2111 -6.23849 10.9697 -5.96599 11.0056 -5.65593L11.5274 -0.942698C11.5557 -0.675966 11.7809 -0.473717 12.0491 -0.474133H19.3804C19.6487 -0.473717 19.8739 -0.675966 19.9022 -0.942698L20.425 -5.65593C20.4609 -5.96639 20.2188 -6.2391 19.9063 -6.24011H11.5233ZM15.7148 -4.14283C16.0041 -4.14283 16.2386 -3.90831 16.2386 -3.61903C16.2386 -3.32973 16.0041 -3.09521 15.7148 -3.09521C15.4255 -3.09521 15.191 -3.32973 15.191 -3.61903C15.191 -3.90831 15.4255 -4.14283 15.7148 -4.14283ZM11.5233 0.0476284C10.8226 0.0476284 10.8255 1.09523 11.5233 1.09523H19.9063C20.604 1.09523 20.5982 0.0476284 19.9063 0.0476284H11.5233ZM2.09674 1.61699V3.19148C2.09674 3.67192 2.32124 4.09959 2.66557 4.38847C2.46775 4.73774 2.35967 5.13477 2.35967 5.54555C2.35967 6.84115 3.40072 7.90473 4.71374 7.90473C6.02676 7.90473 7.07293 6.84115 7.07293 5.54555C7.07293 5.13483 6.97086 4.74684 6.77215 4.39664C7.11556 4.10776 7.33177 3.67119 7.33177 3.19148C7.33177 2.30952 6.62393 1.61699 5.76239 1.61699H4.19198C4.13787 1.61699 4.12126 1.60313 3.97611 1.55978C3.83094 1.51543 3.64976 1.45247 3.47686 1.38892C3.13105 1.26202 2.82005 1.13419 2.82005 1.13419C2.75481 1.10746 2.68487 1.0944 2.61441 1.09531C2.32832 1.09921 2.09787 1.3309 2.09674 1.61699ZM24.0845 1.61699V3.19148C24.0845 3.67192 24.309 4.09959 24.6533 4.38847C24.4555 4.73774 24.3474 5.13477 24.3474 5.54555C24.3474 6.84115 25.3885 7.90473 26.7015 7.90473C28.0145 7.90473 29.0607 6.84115 29.0607 5.54555C29.0607 5.13483 28.9586 4.74684 28.7599 4.39664C29.1033 4.10776 29.3195 3.67119 29.3195 3.19148C29.3195 2.30952 28.6117 1.61699 27.7501 1.61699H26.1797C26.142 1.61699 26.109 1.60313 25.9639 1.55978C25.8187 1.51543 25.6375 1.45247 25.4646 1.38892C25.1188 1.26202 24.8078 1.13419 24.8078 1.13419C24.7426 1.10747 24.6726 1.0944 24.6022 1.09531C24.3161 1.09921 24.0856 1.3309 24.0845 1.61699ZM15.7148 2.66665C15.4416 2.66865 15.1832 2.90739 15.1889 3.19865V7.61111L11.3688 9.81478C10.7454 10.1605 11.2843 11.0915 11.8946 10.7232L15.7148 8.51651L19.5349 10.7232C20.1452 11.0915 20.6841 10.1605 20.0608 9.81478L16.2365 7.60905V3.19865C16.2423 2.90337 15.9879 2.66397 15.7148 2.66665ZM3.45026 8.43057C2.52772 8.43057 1.7169 8.83855 1.15859 9.47615H8.27094C7.71416 8.83855 6.90488 8.43057 5.98235 8.43057H3.45026ZM25.439 8.43057C24.5165 8.43057 23.7057 8.83855 23.1474 9.47615H30.2597C29.7029 8.83855 28.8936 8.43057 27.9711 8.43057H25.439ZM0.00354655 11.1059L0.525311 15.8191C0.553661 16.0862 0.780487 16.2886 1.04912 16.2877H8.37939C8.64802 16.2886 8.87382 16.0862 8.90218 15.8191L9.42803 11.1059C9.46395 10.796 9.22252 10.5251 8.91138 10.5227C5.98729 10.5249 3.02138 10.5239 0.518134 10.5227C0.207641 10.5267 -0.0322632 10.7969 0.00354655 11.1059ZM21.9923 11.1059L22.5141 15.8191C22.5424 16.0862 22.7693 16.2886 23.0379 16.2877H30.3682C30.6368 16.2886 30.8626 16.0862 30.8909 15.8191L31.4168 11.1059C31.4527 10.796 31.2113 10.5251 30.9001 10.5227C27.976 10.5249 25.0101 10.5239 22.5069 10.5227C22.1964 10.5267 21.9565 10.7969 21.9923 11.1059ZM4.71477 12.619C5.00407 12.619 5.23858 12.8535 5.23858 13.1428C5.23858 13.4321 5.00407 13.6666 4.71477 13.6666C4.42547 13.6666 4.19096 13.4321 4.19096 13.1428C4.19096 12.8535 4.42547 12.619 4.71477 12.619ZM26.7035 12.619C26.9928 12.619 27.2273 12.8535 27.2273 13.1428C27.2273 13.4321 26.9928 13.6666 26.7035 13.6666C26.4142 13.6666 26.1797 13.4321 26.1797 13.1428C26.1797 12.8535 26.4142 12.619 26.7035 12.619ZM0.529403 16.8094C0.185565 16.8094 0.00559366 17.107 0.00559366 17.3332C0.00559366 17.5595 0.179337 17.857 0.529403 17.857H8.90524C9.61936 17.8729 9.61936 16.7936 8.90524 16.8094H0.529403ZM22.5182 16.8094C22.1743 16.8094 21.9944 17.107 21.9944 17.3332C21.9944 17.5595 22.1681 17.857 22.5182 17.857H30.893C31.6071 17.8729 31.6071 16.7936 30.893 16.8094H22.5182Z" fill="white"/>
</g>
<line x1="14.4444" y1="9.88917" x2="19.5556" y2="9.88917" stroke="white" stroke-width="0.888889" stroke-linecap="round"/>
<line x1="17.1109" y1="7.44444" x2="17.1109" y2="12.5556" stroke="white" stroke-width="0.888889" stroke-linecap="round"/>
<defs>
<clipPath id="clip0_913_30923">
<rect width="10" height="17.1429" fill="white" transform="translate(0 0.714355)"/>
</clipPath>
</defs>
</svg>
