<svg width="32" height="32" viewBox="0 0 32 32" fill="none" xmlns="http://www.w3.org/2000/svg">
<path d="M31.0303 10.4242H27.3455L16.194 0.581823C16 0.436369 15.7576 0.436369 15.5637 0.581823L4.41214 10.4242H0.969712C0.727288 10.4242 0.484863 10.6182 0.484863 10.9091V13.1394C0.484863 13.4303 0.727288 13.6242 0.969712 13.6242H31.0303C31.3212 13.6242 31.5152 13.4303 31.5152 13.1394V10.9091C31.5152 10.6667 31.3212 10.4242 31.0303 10.4242ZM15.903 9.60001C14.7879 9.60001 13.9152 8.67879 13.9152 7.61213C13.9152 6.49697 14.7879 5.62425 15.903 5.62425C17.0182 5.62425 17.8909 6.54546 17.8909 7.61213C17.8909 8.72728 16.9697 9.60001 15.903 9.60001ZM18.9091 15.4667V14.5939H13.3333V15.4667C13.3333 15.7576 13.5273 15.9515 13.8182 15.9515H18.4243C18.6667 15.9515 18.9091 15.7576 18.9091 15.4667ZM19.9758 30.5455H18.9091V28.703C18.9091 28.4606 18.6667 28.2182 18.4243 28.2182H13.8182C13.5273 28.2182 13.3333 28.4606 13.3333 28.703V30.5455H12.2182C11.9758 30.5455 11.7333 30.7879 11.7333 31.0303C11.7333 31.2727 11.9758 31.5152 12.2182 31.5152H19.9758C20.2667 31.5152 20.4606 31.2727 20.4606 31.0303C20.4606 30.7879 20.2667 30.5455 19.9758 30.5455ZM7.85456 15.4667V14.5939H2.2788V15.4667C2.2788 15.7576 2.52123 15.9515 2.76365 15.9515H7.36971C7.66062 15.9515 7.85456 15.7576 7.85456 15.4667ZM29.4788 15.4667V14.5939H23.903V15.4667C23.903 15.7576 24.1455 15.9515 24.3879 15.9515H28.994C29.2364 15.9515 29.4788 15.7576 29.4788 15.4667ZM30.5455 30.5455H29.4303V28.703C29.4303 28.4606 29.2364 28.2182 28.9455 28.2182H24.3394C24.097 28.2182 23.8546 28.4606 23.8546 28.703V30.5455H22.7879C22.5455 30.5455 22.303 30.7879 22.303 31.0303C22.303 31.2727 22.5455 31.5152 22.7879 31.5152H30.5455C30.7879 31.5152 31.0303 31.2727 31.0303 31.0303C31.0303 30.7879 30.8364 30.5455 30.5455 30.5455ZM8.96971 30.5455H7.85456V28.703C7.85456 28.4606 7.66062 28.2182 7.36971 28.2182H2.76365C2.52123 28.2182 2.2788 28.4606 2.2788 28.703V30.5455H1.21214C0.921227 30.5455 0.727288 30.7879 0.727288 31.0303C0.727288 31.2727 0.921227 31.5152 1.21214 31.5152H8.96971C9.21214 31.5152 9.45456 31.2727 9.45456 31.0303C9.45456 30.7879 9.21214 30.5455 8.96971 30.5455Z" fill="#5E5E62"/>
<path d="M28.5576 16.9212H24.8242V27.2485H28.5576V16.9212Z" fill="#5E5E62"/>
<path d="M6.98187 16.9212H3.24854V27.2485H6.98187V16.9212Z" fill="#5E5E62"/>
<path d="M17.9878 16.9212H14.2545V27.2485H17.9878V16.9212Z" fill="#5E5E62"/>
</svg>
