<svg width="14" height="8" viewBox="0 0 14 8" fill="none" xmlns="http://www.w3.org/2000/svg">
<path d="M12.0016 7.66437L7 2.75702L1.99841 7.66437C1.77887 7.87927 1.48112 8 1.17064 8C0.860169 8 0.562411 7.87927 0.342873 7.66437C0.123335 7.44947 -2.02563e-09 7.158 -2.75677e-09 6.85409C-3.48791e-09 6.55017 0.123335 6.2587 0.342873 6.0438L6.17223 0.33758C6.28061 0.230612 6.40956 0.145709 6.55163 0.087769C6.69371 0.0298295 6.84609 0 7 0C7.15391 0 7.3063 0.0298295 7.44837 0.087769C7.59044 0.145709 7.71939 0.230612 7.82777 0.33758L13.6571 6.0438C13.7658 6.15021 13.8521 6.27653 13.9109 6.41556C13.9697 6.55459 14 6.7036 14 6.85409C14 7.00457 13.9697 7.15358 13.9109 7.29261C13.8521 7.43164 13.7658 7.55796 13.6571 7.66437C13.5484 7.77078 13.4194 7.85519 13.2773 7.91277C13.1353 7.97036 12.9831 8 12.8294 8C12.6756 8 12.5234 7.97036 12.3814 7.91277C12.2393 7.85519 12.1103 7.77078 12.0016 7.66437Z" fill="#5E5E62"/>
</svg>
