<svg width="16" height="20" viewBox="0 0 16 20" fill="none" xmlns="http://www.w3.org/2000/svg">
<path d="M14.7358 2.08058H10.107C10.107 1.52878 9.88503 0.999573 9.48989 0.609388C9.09475 0.219203 8.55882 0 8 0C7.44118 0 6.90525 0.219203 6.51011 0.609388C6.11497 0.999573 5.89298 1.52878 5.89298 2.08058H1.26421C0.928924 2.08058 0.607366 2.2121 0.37028 2.44621C0.133193 2.68032 0 2.99785 0 3.32893C0 3.66001 0.133193 3.97753 0.37028 4.21165C0.607366 4.44576 0.928924 4.57728 1.26421 4.57728L1.97993 18.0185C2.00568 18.5518 2.23807 19.0549 2.62903 19.4238C3.01998 19.7926 3.53956 19.9989 4.08027 20H11.8997C12.4404 19.9989 12.96 19.7926 13.3509 19.4238C13.7419 19.0549 13.9743 18.5518 14 18.0185L14.7358 4.6037C15.0711 4.6037 15.3926 4.47218 15.6297 4.23807C15.8668 4.00395 16 3.68643 16 3.35535C16 3.02427 15.8668 2.70674 15.6297 2.47263C15.3926 2.23852 15.0711 2.107 14.7358 2.107V2.08058ZM6.70903 15.7992C6.70903 16.0199 6.62023 16.2316 6.46218 16.3877C6.30412 16.5438 6.08975 16.6314 5.86622 16.6314C5.64269 16.6314 5.42832 16.5438 5.27027 16.3877C5.11221 16.2316 5.02341 16.0199 5.02341 15.7992V7.50991C5.02341 7.28919 5.11221 7.0775 5.27027 6.92143C5.42832 6.76536 5.64269 6.67767 5.86622 6.67767C6.08975 6.67767 6.30412 6.76536 6.46218 6.92143C6.62023 7.0775 6.70903 7.28919 6.70903 7.50991V15.7992ZM10.9164 15.7992C10.9268 15.9143 10.9128 16.0302 10.8754 16.1397C10.8379 16.2491 10.7778 16.3497 10.6988 16.435C10.6199 16.5202 10.5238 16.5883 10.4167 16.6349C10.3096 16.6814 10.1939 16.7055 10.0769 16.7055C9.95992 16.7055 9.8442 16.6814 9.73713 16.6349C9.63006 16.5883 9.53398 16.5202 9.45501 16.435C9.37605 16.3497 9.31592 16.2491 9.27847 16.1397C9.24101 16.0302 9.22705 15.9143 9.23746 15.7992V7.50991C9.2562 7.30283 9.35275 7.11018 9.50811 6.96987C9.66346 6.82956 9.86638 6.75174 10.0769 6.75174C10.2875 6.75174 10.4904 6.82956 10.6457 6.96987C10.8011 7.11018 10.8977 7.30283 10.9164 7.50991V15.7992Z" fill="#041342"/>
</svg>
