<svg width="32" height="32" viewBox="0 0 32 32" fill="none" xmlns="http://www.w3.org/2000/svg">
<path d="M30.2105 29.4211H27.8421V8.10526C27.8538 7.93259 27.8073 7.76097 27.71 7.61785C27.6127 7.47473 27.4702 7.36837 27.3053 7.31579L21.5263 4.9V29.4211H19.9474V1.78947C19.9474 1.58009 19.8642 1.37929 19.7161 1.23123C19.5681 1.08318 19.3673 1 19.1579 1H4.94737C4.73799 1 4.53718 1.08318 4.38913 1.23123C4.24107 1.37929 4.15789 1.58009 4.15789 1.78947V29.4211H1.78947C1.58009 29.4211 1.37929 29.5042 1.23123 29.6523C1.08318 29.8003 1 30.0011 1 30.2105C1 30.4199 1.08318 30.6207 1.23123 30.7688C1.37929 30.9168 1.58009 31 1.78947 31H30.2105C30.4199 31 30.6207 30.9168 30.7688 30.7688C30.9168 30.6207 31 30.4199 31 30.2105C31 30.0011 30.9168 29.8003 30.7688 29.6523C30.6207 29.5042 30.4199 29.4211 30.2105 29.4211ZM23.8947 10.4737H25.4737C25.6831 10.4737 25.8839 10.5569 26.0319 10.7049C26.18 10.853 26.2632 11.0538 26.2632 11.2632C26.2591 11.4713 26.1746 11.6697 26.0275 11.8169C25.8803 11.9641 25.6818 12.0486 25.4737 12.0526H23.8947C23.6866 12.0486 23.4882 11.9641 23.341 11.8169C23.1938 11.6697 23.1093 11.4713 23.1053 11.2632C23.1053 11.0538 23.1884 10.853 23.3365 10.7049C23.4846 10.5569 23.6854 10.4737 23.8947 10.4737ZM23.8947 15.2105H25.4737C25.6831 15.2105 25.8839 15.2937 26.0319 15.4418C26.18 15.5898 26.2632 15.7906 26.2632 16C26.2632 16.2094 26.18 16.4102 26.0319 16.5582C25.8839 16.7063 25.6831 16.7895 25.4737 16.7895H23.8947C23.6854 16.7895 23.4846 16.7063 23.3365 16.5582C23.1884 16.4102 23.1053 16.2094 23.1053 16C23.1053 15.7906 23.1884 15.5898 23.3365 15.4418C23.4846 15.2937 23.6854 15.2105 23.8947 15.2105ZM23.8947 19.9474H25.4737C25.6818 19.9514 25.8803 20.0359 26.0275 20.1831C26.1746 20.3303 26.2591 20.5287 26.2632 20.7368C26.2632 20.9462 26.18 21.147 26.0319 21.2951C25.8839 21.4431 25.6831 21.5263 25.4737 21.5263H23.8947C23.6854 21.5263 23.4846 21.4431 23.3365 21.2951C23.1884 21.147 23.1053 20.9462 23.1053 20.7368C23.1093 20.5287 23.1938 20.3303 23.341 20.1831C23.4882 20.0359 23.6866 19.9514 23.8947 19.9474ZM23.8947 24.6842H25.4737C25.6831 24.6842 25.8839 24.7674 26.0319 24.9154C26.18 25.0635 26.2632 25.2643 26.2632 25.4737C26.2632 25.6831 26.18 25.8839 26.0319 26.0319C25.8839 26.18 25.6831 26.2632 25.4737 26.2632H23.8947C23.6854 26.2632 23.4846 26.18 23.3365 26.0319C23.1884 25.8839 23.1053 25.6831 23.1053 25.4737C23.1053 25.2643 23.1884 25.0635 23.3365 24.9154C23.4846 24.7674 23.6854 24.6842 23.8947 24.6842ZM13.6316 5.73684H15.2105C15.4199 5.73684 15.6207 5.82002 15.7688 5.96807C15.9168 6.11613 16 6.31693 16 6.52632C16 6.7357 15.9168 6.9365 15.7688 7.08456C15.6207 7.23261 15.4199 7.31579 15.2105 7.31579H13.6316C13.4222 7.31579 13.2214 7.23261 13.0733 7.08456C12.9253 6.9365 12.8421 6.7357 12.8421 6.52632C12.8421 6.31693 12.9253 6.11613 13.0733 5.96807C13.2214 5.82002 13.4222 5.73684 13.6316 5.73684ZM13.6316 10.4737H15.2105C15.4199 10.4737 15.6207 10.5569 15.7688 10.7049C15.9168 10.853 16 11.0538 16 11.2632C16 11.4725 15.9168 11.6733 15.7688 11.8214C15.6207 11.9695 15.4199 12.0526 15.2105 12.0526H13.6316C13.4222 12.0526 13.2214 11.9695 13.0733 11.8214C12.9253 11.6733 12.8421 11.4725 12.8421 11.2632C12.8421 11.0538 12.9253 10.853 13.0733 10.7049C13.2214 10.5569 13.4222 10.4737 13.6316 10.4737ZM13.6316 15.2105H15.2105C15.4199 15.2105 15.6207 15.2937 15.7688 15.4418C15.9168 15.5898 16 15.7906 16 16C16 16.2094 15.9168 16.4102 15.7688 16.5582C15.6207 16.7063 15.4199 16.7895 15.2105 16.7895H13.6316C13.4222 16.7895 13.2214 16.7063 13.0733 16.5582C12.9253 16.4102 12.8421 16.2094 12.8421 16C12.8421 15.7906 12.9253 15.5898 13.0733 15.4418C13.2214 15.2937 13.4222 15.2105 13.6316 15.2105ZM13.6316 19.9474H15.2105C15.4199 19.9474 15.6207 20.0305 15.7688 20.1786C15.9168 20.3267 16 20.5275 16 20.7368C16 20.9462 15.9168 21.147 15.7688 21.2951C15.6207 21.4431 15.4199 21.5263 15.2105 21.5263H13.6316C13.4222 21.5263 13.2214 21.4431 13.0733 21.2951C12.9253 21.147 12.8421 20.9462 12.8421 20.7368C12.8421 20.5275 12.9253 20.3267 13.0733 20.1786C13.2214 20.0305 13.4222 19.9474 13.6316 19.9474ZM8.8 5.73684H10.4737C10.6831 5.73684 10.8839 5.82002 11.0319 5.96807C11.18 6.11613 11.2632 6.31693 11.2632 6.52632C11.2632 6.7357 11.18 6.9365 11.0319 7.08456C10.8839 7.23261 10.6831 7.31579 10.4737 7.31579H8.89474C8.68536 7.31579 8.48455 7.23261 8.33649 7.08456C8.18844 6.9365 8.10526 6.7357 8.10526 6.52632C8.10526 6.31693 8.18844 6.11613 8.33649 5.96807C8.48455 5.82002 8.68536 5.73684 8.89474 5.73684H8.8ZM8.8 10.4737H10.4737C10.6831 10.4737 10.8839 10.5569 11.0319 10.7049C11.18 10.853 11.2632 11.0538 11.2632 11.2632C11.2632 11.4725 11.18 11.6733 11.0319 11.8214C10.8839 11.9695 10.6831 12.0526 10.4737 12.0526H8.89474C8.68536 12.0526 8.48455 11.9695 8.33649 11.8214C8.18844 11.6733 8.10526 11.4725 8.10526 11.2632C8.10526 11.0538 8.18844 10.853 8.33649 10.7049C8.48455 10.5569 8.68536 10.4737 8.89474 10.4737H8.8ZM8.8 15.2105H10.4737C10.6831 15.2105 10.8839 15.2937 11.0319 15.4418C11.18 15.5898 11.2632 15.7906 11.2632 16C11.2632 16.2094 11.18 16.4102 11.0319 16.5582C10.8839 16.7063 10.6831 16.7895 10.4737 16.7895H8.89474C8.68536 16.7895 8.48455 16.7063 8.33649 16.5582C8.18844 16.4102 8.10526 16.2094 8.10526 16C8.10526 15.7906 8.18844 15.5898 8.33649 15.4418C8.48455 15.2937 8.68536 15.2105 8.89474 15.2105H8.8ZM8.8 19.9474H10.4737C10.6831 19.9474 10.8839 20.0305 11.0319 20.1786C11.18 20.3267 11.2632 20.5275 11.2632 20.7368C11.2632 20.9462 11.18 21.147 11.0319 21.2951C10.8839 21.4431 10.6831 21.5263 10.4737 21.5263H8.89474C8.68536 21.5263 8.48455 21.4431 8.33649 21.2951C8.18844 21.147 8.10526 20.9462 8.10526 20.7368C8.10526 20.5275 8.18844 20.3267 8.33649 20.1786C8.48455 20.0305 8.68536 19.9474 8.89474 19.9474H8.8ZM12.8421 29.4211V26.2632H11.2632V29.4211H9.68421V25.4263C9.6963 25.2253 9.78478 25.0364 9.93154 24.8985C10.0783 24.7605 10.2723 24.6838 10.4737 24.6842H13.6316C13.841 24.6842 14.0418 24.7674 14.1898 24.9154C14.3379 25.0635 14.4211 25.2643 14.4211 25.4737V29.4211H12.8421Z" fill="#5E5E62"/>
</svg>
