<svg width="32" height="32" viewBox="0 0 32 32" fill="none" xmlns="http://www.w3.org/2000/svg">
<g clip-path="url(#clip0_2337_67239)">
<path d="M17.5091 26.5273H13.4844C12.1505 26.5273 11.0691 27.6086 11.0691 28.9426V29.5847C11.0691 30.9186 12.1505 32 13.4844 32H17.5091C18.8431 32 19.9244 30.9186 19.9244 29.5847V28.9426C19.9244 27.6086 18.8431 26.5273 17.5091 26.5273Z" fill="#5E5E62"/>
<path d="M19.9244 28.9426H11.0691V32H19.9244V28.9426Z" fill="#5E5E62"/>
<path d="M15.498 21.2729H15.4969C14.3115 21.2729 13.3506 22.2338 13.3506 23.4192V23.4202C13.3506 24.6056 14.3115 25.5666 15.4969 25.5666H15.498C16.6834 25.5666 17.6443 24.6056 17.6443 23.4202V23.4192C17.6443 22.2338 16.6834 21.2729 15.498 21.2729Z" fill="#5E5E62"/>
<path d="M6.44005 26.5273H2.41531C1.08137 26.5273 0 27.6086 0 28.9426V29.5847C0 30.9186 1.08137 32 2.41531 32H6.44005C7.77398 32 8.85536 30.9186 8.85536 29.5847V28.9426C8.85536 27.6086 7.77398 26.5273 6.44005 26.5273Z" fill="#5E5E62"/>
<path d="M8.85536 28.9426H0V32H8.85536V28.9426Z" fill="#5E5E62"/>
<path d="M4.42892 21.2729H4.42781C3.24243 21.2729 2.28149 22.2338 2.28149 23.4192V23.4202C2.28149 24.6056 3.24243 25.5666 4.42781 25.5666H4.42892C5.6143 25.5666 6.57523 24.6056 6.57523 23.4202V23.4192C6.57523 22.2338 5.6143 21.2729 4.42892 21.2729Z" fill="#5E5E62"/>
<path d="M28.5782 26.5273H24.5535C23.2196 26.5273 22.1382 27.6086 22.1382 28.9426V29.5847C22.1382 30.9186 23.2196 32 24.5535 32H28.5782C29.9122 32 30.9935 30.9186 30.9935 29.5847V28.9426C30.9935 27.6086 29.9122 26.5273 28.5782 26.5273Z" fill="#5E5E62"/>
<path d="M30.9935 28.9426H22.1382V32H30.9935V28.9426Z" fill="#5E5E62"/>
<path d="M26.5671 21.2729H26.566C25.3806 21.2729 24.4197 22.2338 24.4197 23.4192V23.4202C24.4197 24.6056 25.3806 25.5666 26.566 25.5666H26.5671C27.7525 25.5666 28.7134 24.6056 28.7134 23.4202V23.4192C28.7134 22.2338 27.7525 21.2729 26.5671 21.2729Z" fill="#5E5E62"/>
<path d="M13.4844 4.39001C13.1671 4.38928 12.8528 4.45123 12.5595 4.57229C12.2662 4.69334 11.9997 4.87117 11.7753 5.09548C11.5509 5.31979 11.373 5.58622 11.2518 5.87946C11.1306 6.17269 11.0685 6.48694 11.0691 6.80423V9.86164H19.9245V6.80423C19.925 6.48694 19.863 6.17269 19.7418 5.87946C19.6206 5.58622 19.4427 5.31979 19.2183 5.09548C18.9939 4.87117 18.7274 4.69334 18.4341 4.57229C18.1408 4.45123 17.8264 4.38928 17.5091 4.39001H17.4472L15.8731 5.96404C15.8238 6.01358 15.7651 6.05289 15.7005 6.07971C15.636 6.10652 15.5667 6.12038 15.4968 6.12038C15.4268 6.12038 15.3576 6.10652 15.293 6.07971C15.2284 6.05289 15.1698 6.01358 15.1204 5.96404L13.5464 4.39001H13.4844Z" fill="#5E5E62"/>
<path d="M17.7109 2.21388C17.7109 0.991215 16.7197 4.57764e-05 15.497 4.57764e-05C14.2744 4.57764e-05 13.2832 0.991215 13.2832 2.21388C13.2832 3.43655 14.2744 4.42772 15.497 4.42772C16.7197 4.42772 17.7109 3.43655 17.7109 2.21388Z" fill="#5E5E62"/>
<path d="M4.42017 19.824V16.5033C4.42017 15.2768 5.40863 14.2894 6.6362 14.2894H24.3657C25.5933 14.2894 26.5818 15.2768 26.5818 16.5033V19.824" stroke="#5E5E62" stroke-width="2" stroke-linejoin="round"/>
<path d="M16.6037 10.9686H14.3899V19.824H16.6037V10.9686Z" fill="#5E5E62"/>
</g>
<defs>
<clipPath id="clip0_2337_67239">
<rect width="32" height="32" fill="white"/>
</clipPath>
</defs>
</svg>
