<svg width="20" height="12" viewBox="0 0 20 12" fill="none" xmlns="http://www.w3.org/2000/svg">
<path d="M9.76222 0C5.78782 0 2.07262 2.1072 -0.000976562 5.52C2.07262 8.9328 5.78782 11.04 9.76222 11.04C13.7366 11.04 17.4518 8.9328 19.5254 5.52C17.4518 2.1072 13.7366 0 9.76222 0ZM9.76222 9.6C7.51342 9.6 5.68222 7.7688 5.68222 5.52C5.68222 3.2712 7.51342 1.44 9.76222 1.44C12.011 1.44 13.8422 3.2712 13.8422 5.52C13.8422 7.7688 12.011 9.6 9.76222 9.6ZM9.76222 2.4C8.04142 2.4 6.64222 3.7992 6.64222 5.52C6.64222 7.2408 8.04142 8.64 9.76222 8.64C11.483 8.64 12.8822 7.2408 12.8822 5.52C12.8822 3.7992 11.483 2.4 9.76222 2.4ZM9.76222 4.32C9.47422 4.32 9.21502 4.4256 9.00622 4.596L8.83822 4.764C8.66782 4.9728 8.56222 5.232 8.56222 5.52C8.56222 5.784 8.34622 6 8.08222 6C7.81822 6 7.60222 5.784 7.60222 5.52C7.60222 4.3296 8.57182 3.36 9.76222 3.36C10.0262 3.36 10.2422 3.576 10.2422 3.84C10.2422 4.104 10.0262 4.32 9.76222 4.32Z" fill="#5E5E62"/>
</svg>
